<?xml version="1.0" standalone="no"?>
<!DOCTYPE svg PUBLIC "-//W3C//DTD SVG 20010904//EN"
 "http://www.w3.org/TR/2001/REC-SVG-20010904/DTD/svg10.dtd">
<svg version="1.0" xmlns="http://www.w3.org/2000/svg"
 width="200.000000pt" height="200.000000pt" viewBox="0 0 200.000000 200.000000"
 preserveAspectRatio="xMidYMid meet">
<metadata>
Created by potrace 1.16, written by Peter Selinger 2001-2019
</metadata>
<g transform="translate(0.000000,200.000000) scale(0.100000,-0.100000)"
fill="#000000" stroke="none">
<path d="M672 1193 l3 -196 48 -33 c101 -70 249 -100 366 -75 67 14 151 55
201 99 l40 34 0 184 0 184 -75 0 -75 0 0 -154 0 -154 -42 -17 c-63 -26 -192
-31 -261 -11 l-57 17 0 159 0 160 -75 0 -75 0 2 -197z"/>
<path d="M1286 925 c-16 -13 -47 -31 -68 -41 l-38 -17 0 -129 0 -128 75 0 75
0 0 170 c0 94 -3 170 -7 170 -5 -1 -21 -11 -37 -25z"/>
<path d="M670 776 l0 -167 73 3 72 3 3 122 3 122 -43 20 c-24 11 -58 29 -75
41 l-33 22 0 -166z"/>
</g>
</svg>
